<svg xmlns="http://www.w3.org/2000/svg" width="32" height="32" viewBox="0 0 32 32">
  <path fill="#E1251B" d="M26.41,18.47 C25.41,17.4 22.69,17.15 19.11,17.72 C18.3505134,17.0065035 17.6638063,16.2193027 17.06,15.37 C16.65,14.8 16.28,14.23 15.95,13.66 C16.5291527,11.9177497 16.8656462,10.1040497 16.95,8.27 C16.95,6.63 16.33,5.13 14.89,5.13 C14.2902963,5.0911911 13.7335645,5.44217418 13.51,6 C13.310766,6.47080131 13.2152674,6.97899021 13.23,7.49 C13.3224084,9.0767463 13.7267879,10.6296993 14.42,12.06 C14,13.33 13.42,14.76 12.81,16.31 C12.26,17.62 11.69,18.84 11.1,19.94 C7.8,21.28 5.22,22.8 5.22,24.48 C5.22,25.31 5.96,25.95 7.05,25.87 C8.83,25.75 11.16,23.25 13.26,19.87 C14.07,19.6 14.93,19.34 15.84,19.09 C16.94,18.8 17.96,18.58 18.9,18.42 C21.9,21.07 24.58,20.99 25.19,20.93 C25.8480771,20.9368793 26.4432435,20.5401017 26.69,19.93 C26.8592868,19.4279143 26.7530249,18.8738341 26.41,18.47 L26.41,18.47 Z M14.82,5.78 C15.4,5.78 15.57,6.59 15.56,7.08 C15.4692697,8.47692717 15.1935286,9.85563249 14.74,11.18 C14.2373685,9.99702257 13.9495371,8.7339507 13.89,7.45 C13.9,7 14,5.78 14.82,5.78 Z M10.59,20.89 C9.2,23.29 7.66,25.13 6.65,25.13 C6.4457778,25.127365 6.25096878,25.0437021 6.10843744,24.8974199 C5.96590611,24.7511378 5.88733054,24.5542218 5.89,24.35 C5.89,23.53 7.89,21.94 10.59,20.89 Z M15.68,18.45 C15.0133333,18.6233333 14.3733333,18.81 13.76,19.01 C14.1329182,18.3226922 14.4667815,17.614902 14.76,16.89 C15.08,16.11 15.38,15.3 15.65,14.49 C15.92,14.93 16.2,15.35 16.49,15.76 C17.0243026,16.5110836 17.6196549,17.2168101 18.27,17.87 C17.47,18 16.59,18.21 15.68,18.45 Z M24.74,19.34 C24.63,19.94 23.97,20.13 23.16,19.96 C21.9248369,19.6682404 20.7745055,19.0930747 19.8,18.28 C20.7944944,18.1506535 21.7973893,18.0971658 22.8,18.12 C24.18,18.18 24.87,18.61 24.74,19.34 L24.74,19.34 Z"/>
</svg>
