<svg xmlns="http://www.w3.org/2000/svg" width="14" height="14" viewBox="0 0 14 14">
  <path fill="#6E6E6E" fill-rule="evenodd" d="M7.0025,1 C10.3176563,1 13.005,3.68734375 13.005,7.00257656 C13.005,10.3178094 10.3176563,13.0051531 7.0025,13.0051531 C3.6870375,13.0051531 1,10.3178094 1,7.00257656 C1,3.68734375 3.6870375,1 7.0025,1 Z M7.43461875,5.47285781 L5.86600625,5.47867656 C5.70502402,5.47867656 5.57041997,5.59292336 5.5392843,5.74499354 L5.5325,5.81225938 L5.5325,6.47911875 C5.5325,6.64043594 5.64698127,6.77484739 5.79885361,6.80592967 L5.86600625,6.81270156 L6.50009687,6.81270156 L6.50009687,9.502725 L5.86600625,9.502725 C5.70502402,9.502725 5.57041997,9.61685457 5.5392843,9.76889543 L5.5325,9.83615469 L5.5325,10.5032438 C5.5325,10.6875297 5.68202656,10.8366734 5.86600625,10.8366734 L6.06651875,10.836184 C6.5036218,10.8351178 7.54416804,10.8325841 8.05774752,10.8313712 L8.3542875,10.8307016 C8.51506875,10.8307016 8.64982354,10.7165134 8.68100002,10.5645092 L8.68779375,10.4972719 L8.68779375,9.83033594 C8.68779375,9.66895176 8.57313662,9.53464917 8.42137419,9.50359515 L8.3542875,9.49682969 L7.768125,9.49682969 L7.768125,5.8062875 C7.768125,5.62200156 7.61859844,5.47285781 7.43461875,5.47285781 Z M7.01314219,2.99284531 C6.46663906,2.99284531 6.058025,3.36157031 6.058025,3.93464062 C6.058025,4.53512031 6.46663906,4.88945156 7.01314219,4.88945156 C7.61339219,4.88945156 7.96833594,4.5077875 7.96833594,3.93464062 C7.96833594,3.38882656 7.58590625,2.99284531 7.01314219,2.99284531 Z"/>
</svg>
