<svg xmlns="http://www.w3.org/2000/svg" width="18" height="18" viewBox="0 0 18 18">
  <path fill="#2C2C2C" d="M14.6875783,13.2735083 L10.4049083,8.99084833 L14.6875783,4.70818833 C14.9409107,4.45573606 15.0401176,4.08720161 14.9477529,3.74169009 C14.8553881,3.39617857 14.5855181,3.12630855 14.2400066,3.03394379 C13.8944951,2.94157903 13.5259606,3.04078591 13.2735083,3.29411833 L8.99084833,7.57678833 L4.70818833,3.29411833 C4.45573606,3.04078591 4.08720161,2.94157903 3.74169009,3.03394379 C3.39617857,3.12630855 3.12630855,3.39617857 3.03394379,3.74169009 C2.94157903,4.08720161 3.04078591,4.45573606 3.29411833,4.70818833 L7.57678833,8.99084833 L3.29411833,13.2735083 C3.04078591,13.5259606 2.94157903,13.8944951 3.03394379,14.2400066 C3.12630855,14.5855181 3.39617857,14.8553881 3.74169009,14.9477529 C4.08720161,15.0401176 4.45573606,14.9409107 4.70818833,14.6875783 L8.99084833,10.4049083 L13.2735083,14.6875783 C13.5259606,14.9409107 13.8944951,15.0401176 14.2400066,14.9477529 C14.5855181,14.8553881 14.8553881,14.5855181 14.9477529,14.2400066 C15.0401176,13.8944951 14.9409107,13.5259606 14.6875783,13.2735083 L14.6875783,13.2735083 Z"/>
</svg>
