<?xml version="1.0" encoding="UTF-8"?>
<svg width="18px" height="18px" viewBox="0 0 18 18" version="1.1" xmlns="http://www.w3.org/2000/svg" xmlns:xlink="http://www.w3.org/1999/xlink">
    <!-- Generator: Sketch 48.2 (47327) - http://www.bohemiancoding.com/sketch -->
    <title>s_error_18</title>
    <desc>Created with Sketch.</desc>
    <defs></defs>
    <g id="Page-1" stroke="none" stroke-width="1" fill="none" fill-rule="evenodd">
        <g id="s_error_18" fill="#C9252D" fill-rule="nonzero">
            <g id="Group-6" transform="translate(1.000000, 1.000000)">
                <path d="M15.898,14.72 C15.685,14.4 8.965,1.067 8.965,1.067 C8.965,1.067 8.538,0 8.004,0 C7.47,0 7.044,0.96 7.044,0.96 C7.044,0.96 0.324,14.507 0.111,14.827 C-0.102,15.147 -0.102,16 0.964,16 L15.151,16 C15.4619925,16.0146089 15.75534,15.8551918 15.9122651,15.5862973 C16.0691903,15.3174028 16.0636934,14.983582 15.898,14.72 Z M8.751,13.867 L7.151,13.867 C7.03672311,13.8592592 6.94574084,13.7682769 6.938,13.654 L6.938,12.054 C6.94574084,11.9397231 7.03672311,11.8487408 7.151,11.841 L8.751,11.841 C8.86527689,11.8487408 8.95625916,11.9397231 8.964,12.054 L8.964,13.654 C9.071,13.76 8.964,13.867 8.751,13.867 Z M8.751,10.667 L7.151,10.667 C7.03672311,10.6592592 6.94574084,10.5682769 6.938,10.454 L6.938,4.587 C6.94574084,4.47272311 7.03672311,4.38174084 7.151,4.374 L8.751,4.374 C8.86527689,4.38174084 8.95625916,4.47272311 8.964,4.587 L8.964,10.454 C9.071,10.56 8.964,10.667 8.751,10.667 Z" id="XMLID_23_"></path>
            </g>
        </g>
    </g>
</svg>