<svg xmlns="http://www.w3.org/2000/svg" width="18" height="18" viewBox="0 0 18 18">
  <path fill="#707070" d="M12.7849693,11.0350824 C12.8719693,11.0350824 12.9249693,11.1350824 12.9049693,11.2280824 C12.6612862,11.7136005 12.3253645,12.1470041 11.9159693,12.5040824 C12.0023351,12.0034979 12.2291397,11.5377508 12.5699693,11.1610824 C12.6339693,11.0990824 12.6699693,11.0340824 12.7849693,11.0340824 L12.7849693,11.0350824 Z M7.08496926,15.7760824 C8.37025104,15.6665302 9.62324435,15.315027 10.7779693,14.7400824 C10.9833245,15.2756147 11.4622924,15.6581769 12.0299693,15.7400824 C12.1299693,15.7500824 12.2299693,15.7600824 12.3299693,15.7600824 C13.0978653,15.7255813 13.8294794,15.4234544 14.3979693,14.9060824 C14.4245521,15.0240071 14.4708708,15.1365921 14.5349693,15.2390824 C14.76775,15.5856639 15.1712353,15.7774345 15.5869693,15.7390824 C16.5624546,15.5441263 17.3979444,14.9195297 17.8609693,14.0390824 C17.9298093,13.7930309 17.8606123,13.6663444 17.6782205,13.5380892 C17.4958286,13.409834 17.2955582,13.4215527 16.80918,13.8626585 C16.3228018,14.3037643 16.0709693,14.6671958 15.3715298,14.5369874 C15.4417875,14.3328029 15.5229031,14.1325175 15.6145298,13.9369874 C15.8015298,13.5159874 16.2589693,13.0730824 16.0709693,12.7010824 C15.9657108,12.5156053 15.7816406,12.3882288 15.5709693,12.3550824 C15.1489693,12.2920824 14.9409693,12.8550824 14.5349693,13.3000824 C14.0119693,13.8820824 12.9299693,14.7861958 12.0299693,14.6671958 C11.9849693,14.6611958 11.7485117,14.4858376 11.6415117,14.1308376 C12.6862459,13.5303381 13.4213242,12.6778722 13.8659208,11.5578709 C14.0361203,10.9687405 14.039388,10.3707988 13.4899693,10.0984358 C12.9063006,9.78479089 12.2943086,9.99649224 11.8095806,10.4482455 C10.9809378,11.328911 10.5769988,12.4458518 10.6259833,13.6540824 C9.62695491,14.1998071 8.36113649,14.6793083 7.22952127,14.8030824 L2.05623933,14.8030824 L3.62612001,11.0501129 L12.0299693,2.24834915 C12.0760133,2.19769153 12.1405557,2.16776404 12.2089693,2.16534915 C12.2743544,2.16531486 12.3374259,2.18954572 12.3859693,2.23334915 L13.9748045,3.65652766 C14.0929901,3.7709387 14.0970048,3.95918185 13.9838045,4.07852766 L6.58732007,12.1435636 C6.30978391,12.4362981 6.31959545,12.8978868 6.60932007,13.1785636 C6.74450031,13.3137646 6.76674797,13.2463091 6.95788705,13.241965 C7.14902612,13.2376209 7.33007092,13.1552852 7.45896926,13.0140824 L14.7349693,5.0140824 C15.0723899,4.72664256 15.2754496,4.31210743 15.2957315,3.86931744 C15.3160134,3.42652746 15.1516999,2.99516486 14.8419693,2.6780824 L13.4899693,1.5080824 C13.1457968,1.17905897 12.6871004,0.996871495 12.2109693,1.00004066 C11.7309397,1.00467769 11.2743215,1.20818237 10.9499693,1.5620824 L2.77596926,10.2910824 C2.70111872,10.3647941 2.64430838,10.4548008 2.60996926,10.5540824 L1.04396926,14.8030824 C0.962033174,15.0343816 0.995868409,15.2909345 1.13496926,15.4930824 C1.28301111,15.6924451 1.5166512,15.8100824 1.76496926,15.8100824 L7.08496926,15.7760824 Z"/>
</svg>
