<svg xmlns="http://www.w3.org/2000/svg" width="18" height="18" viewBox="0 0 18 18">
  <g fill="#6E6E6E" transform="translate(0 1)">
    <path d="M14,10.5328421 L14,13.600006 C14,13.800006 13.8,14.000006 13.6,14.000006 L4.4,14.000006 C4.2,14.000006 4,13.800006 4,13.600006 L4,10.3144983 L3,11.3657769 L3,13.600006 C3,14.400006 3.6,15.000006 4.4,15.000006 L13.6,15.000006 C14.4,15.000006 15,14.400006 15,13.600006 L15,11.5006082 L14,10.5328421 Z M4,5.21490073 L4,1.4 C4,1.2 4.2,1 4.4,1 C9.2,1 11.6,1 11.6,1 L14,3.4 C14,3.4 14,3.84349053 14,4.73047158 L15,3.65558511 L15,3.3 C15,3.1 14.8811646,2.9 14.7,2.7 L12.3,0.3 C12.1,0.1 11.8,-8.02913291e-13 11.5,-8.02913291e-13 L4.4,-8.02913291e-13 C3.6,-8.02913291e-13 3,0.6 3,1.4 L3,4.02660135 L4,5.21490073 Z"/>
    <path d="M12.4635909,8.45878011 C12.455406,8.5024023 12.4358821,8.5455898 12.4039411,8.5853397 C12.375833,8.6246944 12.3321936,8.6644443 12.2799301,8.687994 C12.2160082,8.7277439 12.1161926,8.7551263 12.0007658,8.7670987 C11.8845804,8.779071 11.7488711,8.7748037 11.6209874,8.7551263 C11.3975601,8.7234765 11.1461046,8.6246944 10.898482,8.49430214 C10.6508993,8.36387031 10.4076287,8.19795597 10.1958998,8.03200212 C10.5312004,7.97684222 10.8747259,7.95289745 11.1741727,7.95289745 C11.4774924,7.94906471 11.7371727,7.96874209 11.9087358,7.99651961 C12.0725133,8.02042486 12.2241931,8.08332928 12.3278816,8.1663062 C12.4276972,8.24541087 12.4834741,8.34802567 12.4635909,8.45878011 L12.4635909,8.45878011 Z M8.78638353,8.14275656 C8.65071414,8.17827859 8.49903433,8.2137611 8.34344174,8.253511 C8.18748982,8.29286577 8.03581001,8.33261567 7.89582859,8.3758427 C7.97188809,8.23766636 8.04012205,8.08332928 8.10795674,7.93322007 C8.17579143,7.78315037 8.23544125,7.6368739 8.29121821,7.50648159 C8.35514013,7.35250012 8.42301475,7.18658579 8.48693668,7.02450419 C8.55477137,6.85858985 8.61482045,6.69654777 8.67059741,6.54643856 C8.73064649,6.64134836 8.80666606,6.7598078 8.88228637,6.87443449 C8.95794661,6.98902168 9.03396619,7.09977612 9.09792803,7.18658579 C9.2016165,7.32472261 9.30965692,7.45898718 9.41725816,7.581714 C9.52917143,7.70827357 9.63717193,7.82673301 9.75255878,7.93322007 C9.59700612,7.96103709 9.44141354,7.99264735 9.277676,8.02816938 C9.11781131,8.06365189 8.95403384,8.10340179 8.78638353,8.14275656 L8.78638353,8.14275656 Z M8.12744075,4.33771133 C8.12744075,4.22699641 8.13562563,4.12046984 8.1555089,4.0294323 C8.17579143,3.93875037 8.20346032,3.86347845 8.23544125,3.80831855 C8.25923729,3.76469639 8.29509106,3.73308614 8.33138402,3.70953649 C8.37115056,3.68559172 8.41518921,3.6697866 8.4627813,3.6697866 C8.59066507,3.6697866 8.67878229,3.74501901 8.73883137,3.84380106 C8.79848118,3.93875037 8.82615007,4.06104256 8.82615007,4.14789174 C8.83433495,4.3693611 8.78638353,4.61825237 8.71463606,4.88682102 C8.64680137,5.15574528 8.54698575,5.44786358 8.44717013,5.76001487 C8.3395689,5.49531847 8.25923729,5.22674982 8.20346032,4.98173082 C8.15163605,4.73671181 8.12744075,4.51559806 8.12744075,4.33771133 L8.12744075,4.33771133 Z M5.45661438,10.5015535 C5.42463346,10.5015535 5.39265253,10.4977207 5.36458438,10.4899762 C5.33691549,10.4780434 5.31311945,10.466071 5.28892414,10.4463936 C5.25307038,10.4108716 5.228915,10.3711612 5.21330383,10.3279341 C5.20080692,10.284312 5.20080692,10.2368571 5.21330383,10.1894022 C5.2491576,10.0196156 5.46048723,9.794274 5.791915,9.5573551 C6.12334278,9.3204362 6.57446945,9.0711498 7.08560526,8.8577806 C6.81426648,9.3717634 6.4945371,9.7826967 6.19896309,10.0670705 C5.90382827,10.3476115 5.63205031,10.5015535 5.45661438,10.5015535 L5.45661438,10.5015535 Z M12.6511245,8.14275656 C12.5396105,8.02429712 12.3516776,7.93322007 12.1122798,7.86996004 C11.8728821,7.81092788 11.577308,7.77927811 11.2459202,7.77927811 C11.0661722,7.77927811 10.8747259,7.78698311 10.6669098,7.80705563 C10.4672785,7.82286075 10.2516369,7.85028265 10.0239375,7.88576517 C9.89645297,7.77117798 9.7685692,7.64114129 9.64495754,7.50648159 C9.52098655,7.36834477 9.40124773,7.21823556 9.28154884,7.06002622 C9.19774365,6.94966691 9.11781131,6.83504021 9.04215107,6.71622515 C8.96613149,6.60159846 8.89011192,6.48313902 8.82227722,6.36080732 C8.95016099,5.97725636 9.04997661,5.6257503 9.11389853,5.31743175 C9.17786038,5.00950833 9.21371415,4.74058407 9.21371415,4.51137019 C9.21371415,4.26247892 9.1696755,4.00975491 9.061675,3.81989581 C8.95403384,3.63043182 8.77468514,3.5 8.49903433,3.5 C8.41518921,3.5 8.32319914,3.52777751 8.23975328,3.57100454 C8.1555089,3.6146267 8.08376143,3.67788672 8.04012205,3.74889126 C7.91223828,3.9622605 7.8841302,4.30610108 7.94417927,4.71316217 C8.00814112,5.11986764 8.15163605,5.59026779 8.37115056,6.04865603 C8.29121821,6.28174217 8.19958748,6.49898366 8.10364471,6.72045303 C8.00382909,6.93769452 7.90014062,7.1669084 7.79601297,7.41192741 C7.70438224,7.62106877 7.61666427,7.81476063 7.5246742,8.00461973 C7.43304346,8.19408372 7.33322784,8.37967544 7.22131457,8.5772395 C6.58652717,8.8184258 6.05550809,9.0989273 5.67221612,9.3755961 C5.28892414,9.6522649 5.05343914,9.9208335 5.00936056,10.1461752 C4.99339006,10.2248847 4.99730284,10.3039894 5.02537099,10.3792613 C5.04952637,10.4502658 5.09711845,10.5173981 5.16104038,10.5768254 C5.18523568,10.5965028 5.23278784,10.6358576 5.31311945,10.6717352 C5.39265253,10.7072177 5.5045658,10.7388675 5.64454723,10.7388675 C6.06329371,10.7388675 6.47465383,10.4186161 6.8380226,9.9999382 C7.2014313,9.5809047 7.51684865,9.0634448 7.74454804,8.6683166 C7.91611112,8.6131172 8.10364471,8.5575622 8.29509106,8.5024023 C8.4830239,8.45107511 8.67486952,8.39974795 8.85034538,8.35616531 C9.04215107,8.30483815 9.22541254,8.25738326 9.40555977,8.2137611 C9.58490847,8.17053407 9.76038432,8.13078417 9.93661878,8.10340179 C10.3756478,8.48655762 10.8068912,8.7076714 11.1780456,8.8381032 C11.5492399,8.9646628 11.8565123,8.9963125 12.048318,8.9963125 C12.2877158,8.9963125 12.4475805,8.9488576 12.5594937,8.8855581 C12.6674942,8.8184258 12.727144,8.7315766 12.7548528,8.6563442 C12.7673098,8.6289618 12.7750955,8.6011843 12.7790082,8.5734068 C12.782921,8.5455898 12.782921,8.5182074 12.782921,8.49042988 C12.782921,8.42329759 12.7712226,8.35616531 12.7470273,8.29286577 C12.7232712,8.23383361 12.6912903,8.17827859 12.6511245,8.14275656 L12.6511245,8.14275656 Z"/>
    <path d="M17.4734792,7.22105684 L14.4798166,4.22858675 C14.3395885,4.08233232 14.1456724,3.99975149 13.9430541,4 C13.7440021,3.99956643 13.5529773,4.07844683 13.412226,4.21919818 C13.2714746,4.35994954 13.1925942,4.55097425 13.193027,4.75002625 C13.1928177,4.94351953 13.2681716,5.12944714 13.4030365,5.26819565 L15.8859999,7.7502816 L13.421397,10.2139844 C13.275278,10.354083 13.1927754,10.5478209 13.193027,10.7502519 C13.1925063,10.9493611 13.2713479,11.1404708 13.4121088,11.2812936 C13.5528697,11.4221165 13.7439447,11.5010421 13.9430541,11.5006082 C14.1366488,11.5008205 14.3226661,11.4253881 14.4614335,11.2903971 L17.4734792,8.27950636 C17.6142625,8.13933943 17.6932894,7.94878625 17.693027,7.75012409 C17.693027,7.55160739 17.6140306,7.36125027 17.4734792,7.22105684 Z" transform="matrix(-1 0 0 1 30.886 0)"/>
    <path d="M4.28045219,7.22105684 L1.28678955,4.22858675 C1.14656147,4.08233232 0.952645434,3.99975149 0.750027049,4 C0.550975049,3.99956643 0.359950336,4.07844683 0.219198981,4.21919818 C0.078447625,4.35994954 -0.000432770261,4.55097425 -1.1449508e-11,4.75002625 C-0.000209335603,4.94351953 0.0751445379,5.12944714 0.210009437,5.26819565 L2.69297291,7.7502816 L0.228370036,10.2139844 C0.0822509533,10.354083 -0.000251609527,10.5478209 -1.1449508e-11,10.7502519 C-0.000520695829,10.9493611 0.0783208797,11.1404708 0.219081802,11.2812936 C0.359842725,11.4221165 0.55091772,11.5010421 0.750027049,11.5006082 C0.943621768,11.5008205 1.12963912,11.4253881 1.26840645,11.2903971 L4.28045219,8.27950636 C4.42123553,8.13933943 4.50026237,7.94878625 4.5,7.75012409 C4.5,7.55160739 4.42100354,7.36125027 4.28045219,7.22105684 Z"/>
  </g>
</svg>
