<svg xmlns="http://www.w3.org/2000/svg" width="18" height="18" viewBox="0 0 18 18">
  <path fill="#6E6E6E" d="M9,1 C4.581722,1 1,4.581722 1,9 C1,13.418278 4.581722,17 9,17 C13.418278,17 17,13.418278 17,9 C17,6.87826808 16.1571453,4.84343678 14.6568542,3.34314575 C13.1565632,1.84285472 11.1217319,1 9,1 Z M15.4701176,8.52941176 L12.8484706,8.52941176 C12.8205734,7.57619434 12.6859291,6.62910644 12.4470588,5.70588235 L14.5868235,5.70588235 C15.0965206,6.56569683 15.3989417,7.53241325 15.4701176,8.52941176 L15.4701176,8.52941176 Z M13.912,4.76470588 L12.1529412,4.76470588 C11.9098913,4.08051454 11.5605051,3.43891432 11.1176471,2.86352941 C12.1999234,3.24080367 13.163714,3.8965319 13.912,4.76470588 L13.912,4.76470588 Z M8.52941176,9.47058824 L8.52941176,12.2941176 L6.52094118,12.2941176 C6.26303405,11.3740307 6.11905524,10.4257619 6.09223529,9.47058824 L8.52941176,9.47058824 Z M6.09223529,8.52941176 C6.11905524,7.5742381 6.26303405,6.62596928 6.52094118,5.70588235 L8.52941176,5.70588235 L8.52941176,8.52941176 L6.09223529,8.52941176 Z M9.47058824,9.47058824 L11.9077647,9.47058824 C11.8809448,10.4257619 11.7369659,11.3740307 11.4790588,12.2941176 L9.47058824,12.2941176 L9.47058824,9.47058824 Z M9.47058824,8.52941176 L9.47058824,5.70588235 L11.4790588,5.70588235 C11.7369659,6.62596928 11.8809448,7.5742381 11.9077647,8.52941176 L9.47058824,8.52941176 Z M11.1496471,4.76470588 L9.47058824,4.76470588 L9.47058824,2.70305882 C10.2674007,3.15729951 10.8661151,3.89243626 11.1496471,4.76470588 L11.1496471,4.76470588 Z M8.52941176,2.70305882 L8.52941176,4.76470588 L6.85035294,4.76470588 C7.1338849,3.89243626 7.73259933,3.15729951 8.52941176,2.70305882 L8.52941176,2.70305882 Z M6.88235294,2.86352941 C6.44032504,3.4390709 6.09173738,4.08066277 5.84941176,4.76470588 L4.088,4.76470588 C4.83628595,3.8965319 5.8000766,3.24080367 6.88235294,2.86352941 L6.88235294,2.86352941 Z M3.41317647,5.70588235 L5.55294118,5.70588235 C5.31407094,6.62910644 5.17942661,7.57619434 5.15152941,8.52941176 L2.52988235,8.52941176 C2.60105827,7.53241325 2.90347939,6.56569683 3.41317647,5.70588235 L3.41317647,5.70588235 Z M2.52988235,9.47058824 L5.15152941,9.47058824 C5.1794259,10.4238057 5.31407024,11.3708937 5.55294118,12.2941176 L3.41317647,12.2941176 C2.90347939,11.4343032 2.60105827,10.4675867 2.52988235,9.47058824 L2.52988235,9.47058824 Z M4.088,13.2352941 L5.84941176,13.2352941 C6.09173738,13.9193372 6.44032504,14.5609291 6.88235294,15.1364706 C5.8000766,14.7591963 4.83628595,14.1034681 4.088,13.2352941 L4.088,13.2352941 Z M6.85035294,13.2352941 L8.52941176,13.2352941 L8.52941176,15.2969412 C7.73259933,14.8427005 7.1338849,14.1075637 6.85035294,13.2352941 L6.85035294,13.2352941 Z M9.47058824,15.2969412 L9.47058824,13.2352941 L11.1496471,13.2352941 C10.8661151,14.1075637 10.2674007,14.8427005 9.47058824,15.2969412 L9.47058824,15.2969412 Z M11.1176471,15.1364706 C11.5605051,14.5610857 11.9098913,13.9194855 12.1529412,13.2352941 L13.9143529,13.2352941 C13.1654151,14.1038081 12.2007743,14.7595625 11.1176471,15.1364706 L11.1176471,15.1364706 Z M14.5868235,12.2941176 L12.4470588,12.2941176 C12.6859298,11.3708937 12.8205741,10.4238057 12.8484706,9.47058824 L15.4701176,9.47058824 C15.3989417,10.4675867 15.0965206,11.4343032 14.5868235,12.2941176 L14.5868235,12.2941176 Z"/>
</svg>
