<svg xmlns="http://www.w3.org/2000/svg" width="18" height="18" viewBox="0 0 18 18">
  <g fill="none" fill-rule="evenodd">
    <path fill="#707070" fill-rule="nonzero" d="M11.2135909,8.45878011 C11.205406,8.5024023 11.1858821,8.5455898 11.1539411,8.5853397 C11.125833,8.6246944 11.0821936,8.6644443 11.0299301,8.687994 C10.9660082,8.7277439 10.8661926,8.7551263 10.7507658,8.7670987 C10.6345804,8.779071 10.4988711,8.7748037 10.3709874,8.7551263 C10.1475601,8.7234765 9.8961046,8.6246944 9.648482,8.49430214 C9.4008993,8.36387031 9.1576287,8.19795597 8.9458998,8.03200212 C9.2812004,7.97684222 9.6247259,7.95289745 9.9241727,7.95289745 C10.2274924,7.94906471 10.4871727,7.96874209 10.6587358,7.99651961 C10.8225133,8.02042486 10.9741931,8.08332928 11.0778816,8.1663062 C11.1776972,8.24541087 11.2334741,8.34802567 11.2135909,8.45878011 L11.2135909,8.45878011 Z M7.53638353,8.14275656 C7.40071414,8.17827859 7.24903433,8.2137611 7.09344174,8.253511 C6.93748982,8.29286577 6.78581001,8.33261567 6.64582859,8.3758427 C6.72188809,8.23766636 6.79012205,8.08332928 6.85795674,7.93322007 C6.92579143,7.78315037 6.98544125,7.6368739 7.04121821,7.50648159 C7.10514013,7.35250012 7.17301475,7.18658579 7.23693668,7.02450419 C7.30477137,6.85858985 7.36482045,6.69654777 7.42059741,6.54643856 C7.48064649,6.64134836 7.55666606,6.7598078 7.63228637,6.87443449 C7.70794661,6.98902168 7.78396619,7.09977612 7.84792803,7.18658579 C7.9516165,7.32472261 8.05965692,7.45898718 8.16725816,7.581714 C8.27917143,7.70827357 8.38717193,7.82673301 8.50255878,7.93322007 C8.34700612,7.96103709 8.19141354,7.99264735 8.027676,8.02816938 C7.86781131,8.06365189 7.70403384,8.10340179 7.53638353,8.14275656 L7.53638353,8.14275656 Z M6.87744075,4.33771133 C6.87744075,4.22699641 6.88562563,4.12046984 6.9055089,4.0294323 C6.92579143,3.93875037 6.95346032,3.86347845 6.98544125,3.80831855 C7.00923729,3.76469639 7.04509106,3.73308614 7.08138402,3.70953649 C7.12115056,3.68559172 7.16518921,3.6697866 7.2127813,3.6697866 C7.34066507,3.6697866 7.42878229,3.74501901 7.48883137,3.84380106 C7.54848118,3.93875037 7.57615007,4.06104256 7.57615007,4.14789174 C7.58433495,4.3693611 7.53638353,4.61825237 7.46463606,4.88682102 C7.39680137,5.15574528 7.29698575,5.44786358 7.19717013,5.76001487 C7.0895689,5.49531847 7.00923729,5.22674982 6.95346032,4.98173082 C6.90163605,4.73671181 6.87744075,4.51559806 6.87744075,4.33771133 L6.87744075,4.33771133 Z M4.20661438,10.5015535 C4.17463346,10.5015535 4.14265253,10.4977207 4.11458438,10.4899762 C4.08691549,10.4780434 4.06311945,10.466071 4.03892414,10.4463936 C4.00307038,10.4108716 3.978915,10.3711612 3.96330383,10.3279341 C3.95080692,10.284312 3.95080692,10.2368571 3.96330383,10.1894022 C3.9991576,10.0196156 4.21048723,9.794274 4.541915,9.5573551 C4.87334278,9.3204362 5.32446945,9.0711498 5.83560526,8.8577806 C5.56426648,9.3717634 5.2445371,9.7826967 4.94896309,10.0670705 C4.65382827,10.3476115 4.38205031,10.5015535 4.20661438,10.5015535 L4.20661438,10.5015535 Z M11.4011245,8.14275656 C11.2896105,8.02429712 11.1016776,7.93322007 10.8622798,7.86996004 C10.6228821,7.81092788 10.327308,7.77927811 9.9959202,7.77927811 C9.8161722,7.77927811 9.6247259,7.78698311 9.4169098,7.80705563 C9.2172785,7.82286075 9.0016369,7.85028265 8.7739375,7.88576517 C8.64645297,7.77117798 8.5185692,7.64114129 8.39495754,7.50648159 C8.27098655,7.36834477 8.15124773,7.21823556 8.03154884,7.06002622 C7.94774365,6.94966691 7.86781131,6.83504021 7.79215107,6.71622515 C7.71613149,6.60159846 7.64011192,6.48313902 7.57227722,6.36080732 C7.70016099,5.97725636 7.79997661,5.6257503 7.86389853,5.31743175 C7.92786038,5.00950833 7.96371415,4.74058407 7.96371415,4.51137019 C7.96371415,4.26247892 7.9196755,4.00975491 7.811675,3.81989581 C7.70403384,3.63043182 7.52468514,3.5 7.24903433,3.5 C7.16518921,3.5 7.07319914,3.52777751 6.98975328,3.57100454 C6.9055089,3.6146267 6.83376143,3.67788672 6.79012205,3.74889126 C6.66223828,3.9622605 6.6341302,4.30610108 6.69417927,4.71316217 C6.75814112,5.11986764 6.90163605,5.59026779 7.12115056,6.04865603 C7.04121821,6.28174217 6.94958748,6.49898366 6.85364471,6.72045303 C6.75382909,6.93769452 6.65014062,7.1669084 6.54601297,7.41192741 C6.45438224,7.62106877 6.36666427,7.81476063 6.2746742,8.00461973 C6.18304346,8.19408372 6.08322784,8.37967544 5.97131457,8.5772395 C5.33652717,8.8184258 4.80550809,9.0989273 4.42221612,9.3755961 C4.03892414,9.6522649 3.80343914,9.9208335 3.75936056,10.1461752 C3.74339006,10.2248847 3.74730284,10.3039894 3.77537099,10.3792613 C3.79952637,10.4502658 3.84711845,10.5173981 3.91104038,10.5768254 C3.93523568,10.5965028 3.98278784,10.6358576 4.06311945,10.6717352 C4.14265253,10.7072177 4.2545658,10.7388675 4.39454723,10.7388675 C4.81329371,10.7388675 5.22465383,10.4186161 5.5880226,9.9999382 C5.9514313,9.5809047 6.26684865,9.0634448 6.49454804,8.6683166 C6.66611112,8.6131172 6.85364471,8.5575622 7.04509106,8.5024023 C7.2330239,8.45107511 7.42486952,8.39974795 7.60034538,8.35616531 C7.79215107,8.30483815 7.97541254,8.25738326 8.15555977,8.2137611 C8.33490847,8.17053407 8.51038432,8.13078417 8.68661878,8.10340179 C9.1256478,8.48655762 9.5568912,8.7076714 9.9280456,8.8381032 C10.2992399,8.9646628 10.6065123,8.9963125 10.798318,8.9963125 C11.0377158,8.9963125 11.1975805,8.9488576 11.3094937,8.8855581 C11.4174942,8.8184258 11.477144,8.7315766 11.5048528,8.6563442 C11.5173098,8.6289618 11.5250955,8.6011843 11.5290082,8.5734068 C11.532921,8.5455898 11.532921,8.5182074 11.532921,8.49042988 C11.532921,8.42329759 11.5212226,8.35616531 11.4970273,8.29286577 C11.4732712,8.23383361 11.4412903,8.17827859 11.4011245,8.14275656 L11.4011245,8.14275656 Z"/>
    <path fill="#707070" fill-rule="nonzero" d="M17.822,8.343 L15.661,6.181 C15.5746637,6.09533011 15.4576216,6.04779301 15.336,6.04897756 L15.321,6.04897756 C15.1900382,6.0529269 15.0656814,6.10740018 14.974,6.201 L7.356,13.819 C7.31161149,13.8628878 7.2789471,13.9172139 7.261,13.977 L6.04,17.647 C5.997,17.788 6.212,17.966 6.333,17.966 C6.34063126,17.967042 6.34836874,17.967042 6.356,17.966 C6.456,17.943 9.487,16.907 10.028,16.744 C10.087166,16.7270087 10.1409151,16.6949659 10.184,16.651 L17.8,9.03 C17.8889077,8.94118858 17.9428652,8.82333397 17.952,8.698 C17.9618055,8.56646804 17.9144291,8.43709396 17.822,8.343 Z M7.022,16.987 L8.011,14.227 L9.781,15.993 C8.968,16.236 7.719,16.778 7.019,16.987 L7.022,16.987 Z M13.5,1 L1.5,1 C1.22385763,1 1,1.22385762 1,1.5 L1,13.5 C1,13.7761424 1.22385763,14 1.5,14 L6.038,14 L6.151,13.661 C6.2173145,13.4536852 6.33256103,13.2653807 6.487,13.112 L6.6,13 L2,13 L2,2 L13,2 L13,6.583 L14,5.583 L14,1.5 C14,1.22385762 13.7761424,1 13.5,1 Z"/>
  </g>
</svg>
