<svg xmlns="http://www.w3.org/2000/svg" width="18" height="18" viewBox="0 0 18 18">
  <g fill="none" fill-rule="evenodd">
    <path fill="#6E6E6E" fill-rule="nonzero" d="M5,14 L2.38,14 C2.1701318,14 2,13.8298682 2,13.62 L2,12.38 C2,12.1701318 2.1701318,12 2.38,12 L5,12 L5,10.2 C5.0099758,10.1097714 5.0894516,10.0435415 5.18,10.05 C5.2236287,10.0476071 5.2665328,10.0619085 5.3,10.09 L7.91,12.92 C7.9699702,12.9810728 7.9699702,13.0789272 7.91,13.14 L5.3,15.91 C5.2269334,15.9685001 5.1230666,15.9685001 5.05,15.91 C5.0198566,15.8810929 5.001959,15.8417182 5,15.8 L5,14 Z M5,8 C2.2385763,8 -8.31246183e-12,10.2385763 -8.31246183e-12,13 C-8.31246183e-12,15.7614237 2.2385763,18 5,18 C7.7614237,18 10,15.7614237 10,13 C10,10.2385763 7.7614237,8 5,8 Z M8.92587353,8.98830508 C9.0706394,8.70627729 9.20470323,8.4188253 9.32776669,8.12656125 C9.52507046,7.65729822 9.69694215,7.20977553 9.8638915,6.72082314 C9.41882997,5.73635525 9.30397538,4.76665437 9.57675503,4.3006729 C9.6846363,4.11918625 9.87803543,4.00568612 10.0890885,4 C10.7175072,4 10.9406533,4.60339678 10.9406533,5.16823523 C10.9066698,5.81794959 10.7777312,6.45918685 10.5579414,7.07153983 C10.6912371,7.30385128 10.8369301,7.52882639 10.9943888,7.74549014 C11.2035054,8.03580849 11.4390012,8.30618275 11.6978731,8.55316401 C12.0949349,8.48875437 12.4962832,8.45433738 12.8985138,8.45020507 C13.5978962,8.45020507 14.0971034,8.58926116 14.3432204,8.85219613 C14.445393,8.96878625 14.5011586,9.11885731 14.5,9.27387654 C14.5008218,9.34688468 14.4878769,9.41940264 14.4617668,9.48758812 C14.3895724,9.6758676 14.1930891,9.90065444 13.6622968,9.90065444 C12.875711,9.86503926 12.1290008,9.54424999 11.5616884,8.99822553 C11.2335325,9.05565283 10.8746119,9.13441026 10.4980529,9.23285705 C10.1571809,9.32227955 9.81959044,9.4235977 9.49471604,9.53352995 C9.48442904,9.55151421 9.47393428,9.56975178 9.46323651,9.58822289 C9.29817831,9.37586948 9.11855756,9.17539712 8.92587353,8.98830508 Z M12.1158618,8.90716225 C12.4385236,9.14794915 12.8053478,9.32299903 13.1954949,9.42236712 C13.2526638,9.43560862 13.3111453,9.44235141 13.3698278,9.44246667 C13.5667214,9.44246667 13.7102896,9.36042768 13.7353115,9.2283449 C13.7681271,9.05893439 13.6717313,8.95023272 13.448175,8.9034705 C13.0058942,8.84316487 12.5573916,8.84440735 12.1154516,8.90716225 L12.1158618,8.90716225 Z M10.3819677,7.58469372 C10.294186,7.82629855 10.1928679,8.08390098 10.0743215,8.36734569 C9.98982135,8.56916161 9.88932359,8.78697513 9.77980153,9.00478865 C9.99105193,8.93997785 10.1945086,8.88173017 10.395094,8.8304558 C10.6633615,8.75908187 10.931629,8.69632205 11.1933333,8.64381709 L11.1629789,8.61264228 L11.1687217,8.61264228 C10.9856615,8.41601204 10.8148362,8.2083369 10.6572085,7.99078672 C10.5620433,7.85952434 10.4713902,7.72580078 10.3823779,7.58469372 L10.3819677,7.58469372 Z M9.93895717,4.5119233 C9.80031128,4.7477854 9.8064642,5.35364335 10.0620157,6.09855739 C10.1854232,5.6801167 10.2605668,5.24893453 10.2859821,4.8134166 C10.2859821,4.55212241 10.2170694,4.41675807 10.0853968,4.41593768 C10.0338525,4.41815479 9.98593762,4.44308849 9.95454458,4.48403005 L9.93895717,4.5119233 Z"/>
    <path fill="#6E6E6E" fill-rule="nonzero" d="M10.7023781,15 L15.6200375,15 C15.8370307,14.9892175 16.0057371,14.8071923 16.0000375,14.5900058 L16.0000375,3.56000584 C15.9997016,3.51617444 15.9829292,3.47406502 15.9530375,3.44200584 L13.5880375,1.04200584 C13.559307,1.01380855 13.5202697,0.99862741 13.4800375,1 L5.38003751,1 C5.1630443,1.01079412 4.99433796,1.19281938 5.00003751,1.41000584 L5.00003751,7.0001562 C4.65919705,7.00259044 4.32511311,7.03344433 4,7.09046605 L4,1.41000584 C3.99446382,0.640660133 4.61074984,0.0109765874 5.38003751,7.79820652e-13 L13.4800375,7.79820652e-13 C13.7878592,-0.00097410017 14.0832244,0.121494418 14.3000375,0.340005836 L16.6600375,2.73000584 C16.8787565,2.95076821 17.0010236,3.24924377 17.000075,3.56000584 L17.000075,14.5900058 C17.0056112,15.3593515 16.3893252,15.9890351 15.6200375,16 L10.241095,16 C10.4240198,15.6837841 10.5789134,15.3493182 10.7023781,15 Z"/>
  </g>
</svg>
