<svg xmlns="http://www.w3.org/2000/svg" width="26" height="14" viewBox="0 0 26 14">
  <g fill="none" fill-rule="evenodd">
    <path fill="#6E6E6E" fill-rule="nonzero" d="M0,7 C0,6.5403733 0.044834331,6.0851626 0.134503007,5.6343679 C0.22417168,5.1835728 0.35695171,4.7458553 0.53284317,4.3212156 C0.70873463,3.8965762 0.92435771,3.4931736 1.17971253,3.1110082 C1.43506742,2.7288425 1.7252473,2.3752573 2.0502524,2.0502524 C2.3752573,1.7252473 2.7288425,1.43506742 3.1110082,1.17971265 C3.4931736,0.92435777 3.8965762,0.70873463 4.3212156,0.53284317 C4.7458553,0.35695171 5.1835728,0.22417168 5.6343679,0.134503007 C6.0851626,0.044834331 6.5403733,0 7,0 L19,0 C19.459625,0 19.914835,0.044834331 20.365629,0.134503007 C20.816423,0.22417168 21.254141,0.35695171 21.678782,0.53284317 C22.10342,0.70873463 22.506823,0.92435771 22.888987,1.17971253 C23.271152,1.43506742 23.624739,1.7252473 23.949745,2.0502524 C24.27475,2.3752573 24.564928,2.7288425 24.820282,3.1110082 C25.075636,3.4931736 25.29126,3.8965762 25.467152,4.3212156 C25.643044,4.7458553 25.775824,5.1835728 25.865494,5.6343679 C25.955162,6.0851626 26,6.5403733 26,7 C26,7.4596262 25.955162,7.9148369 25.865494,8.3656321 C25.775824,8.8164272 25.643044,9.2541437 25.467154,9.6787825 C25.29126,10.1034222 25.075638,10.5068245 24.820284,10.8889904 C24.56493,11.2711563 24.27475,11.6247416 23.949745,11.9497461 C23.624739,12.2747507 23.271152,12.5649309 22.888987,12.8202858 C22.506823,13.0756407 22.10342,13.2912636 21.678782,13.4671545 C21.254141,13.6430454 20.816423,13.7758255 20.365629,13.8654947 C19.914835,13.955164 19.459625,14 19,14 L7,14 C6.5403733,14 6.0851626,13.955164 5.6343679,13.8654947 C5.1835728,13.7758255 4.7458553,13.6430454 4.3212156,13.4671545 C3.8965762,13.2912636 3.4931736,13.0756407 3.1110082,12.8202858 C2.7288425,12.5649309 2.3752573,12.2747507 2.0502524,11.9497461 C1.7252473,11.6247416 1.43506742,11.2711563 1.17971265,10.8889904 C0.92435777,10.5068245 0.70873463,10.1034222 0.53284317,9.6787825 C0.35695171,9.2541437 0.22417168,8.8164272 0.134503007,8.3656321 C0.044834331,7.9148369 0,7.4596262 0,7 Z"/>
    <g fill-rule="nonzero">
      <path fill="#1473E6" d="M0,7 C0,6.5403733 0.044834331,6.0851626 0.134503007,5.6343679 C0.22417168,5.1835728 0.35695171,4.7458553 0.53284317,4.3212156 C0.70873463,3.8965762 0.92435771,3.4931736 1.17971253,3.1110082 C1.43506742,2.7288425 1.7252473,2.3752573 2.0502524,2.0502524 C2.3752573,1.7252473 2.7288425,1.43506742 3.1110082,1.17971265 C3.4931736,0.92435777 3.8965762,0.70873463 4.3212156,0.53284317 C4.7458553,0.35695171 5.1835728,0.22417168 5.6343679,0.134503007 C6.0851626,0.044834331 6.5403733,0 7,0 L19,0 C19.459625,0 19.914835,0.044834331 20.365629,0.134503007 C20.816423,0.22417168 21.254141,0.35695171 21.678782,0.53284317 C22.10342,0.70873463 22.506823,0.92435771 22.888987,1.17971253 C23.271152,1.43506742 23.624739,1.7252473 23.949745,2.0502524 C24.27475,2.3752573 24.564928,2.7288425 24.820282,3.1110082 C25.075636,3.4931736 25.29126,3.8965762 25.467152,4.3212156 C25.643044,4.7458553 25.775824,5.1835728 25.865494,5.6343679 C25.955162,6.0851626 26,6.5403733 26,7 C26,7.4596262 25.955162,7.9148369 25.865494,8.3656321 C25.775824,8.8164272 25.643044,9.2541437 25.467154,9.6787825 C25.29126,10.1034222 25.075638,10.5068245 24.820284,10.8889904 C24.56493,11.2711563 24.27475,11.6247416 23.949745,11.9497461 C23.624739,12.2747507 23.271152,12.5649309 22.888987,12.8202858 C22.506823,13.0756407 22.10342,13.2912636 21.678782,13.4671545 C21.254141,13.6430454 20.816423,13.7758255 20.365629,13.8654947 C19.914835,13.955164 19.459625,14 19,14 L7,14 C6.5403733,14 6.0851626,13.955164 5.6343679,13.8654947 C5.1835728,13.7758255 4.7458553,13.6430454 4.3212156,13.4671545 C3.8965762,13.2912636 3.4931736,13.0756407 3.1110082,12.8202858 C2.7288425,12.5649309 2.3752573,12.2747507 2.0502524,11.9497461 C1.7252473,11.6247416 1.43506742,11.2711563 1.17971265,10.8889904 C0.92435777,10.5068245 0.70873463,10.1034222 0.53284317,9.6787825 C0.35695171,9.2541437 0.22417168,8.8164272 0.134503007,8.3656321 C0.044834331,7.9148369 0,7.4596262 0,7 Z"/>
      <g transform="translate(12)">
        <path fill="#FFF" d="M7,1 C7.3939652,1 7.7841449,1.0384295 8.1705399,1.11528838 C8.5569353,1.19214714 8.9321222,1.30595851 9.2960987,1.45672262 C9.6600752,1.60748672 10.0058479,1.7923065 10.3334188,2.0111821 C10.6609898,2.2300577 10.9640627,2.4787834 11.2426395,2.757359 C11.5212145,3.0359347 11.7699394,3.3390076 11.9888153,3.6665778 C12.2076902,3.994148 12.3925104,4.3399215 12.5432749,4.7038984 C12.6940384,5.0678754 12.8078508,5.4430618 12.8847103,5.8294573 C12.9615688,6.2158532 13,6.6060343 13,7 C13,7.3939652 12.9615688,7.7841449 12.8847094,8.1705399 C12.8078499,8.5569353 12.6940384,8.9321222 12.5432749,9.2960987 C12.3925104,9.6600752 12.2076902,10.0058479 11.9888153,10.3334188 C11.7699394,10.6609898 11.5212145,10.9640627 11.2426395,11.2426395 C10.9640627,11.5212145 10.6609898,11.7699394 10.3334188,11.9888153 C10.0058479,12.2076902 9.6600752,12.3925104 9.2960987,12.5432749 C8.9321222,12.6940384 8.5569353,12.8078508 8.1705399,12.8847103 C7.7841449,12.9615688 7.3939652,13 7,13 C6.6060343,13 6.2158532,12.9615688 5.8294573,12.8847094 C5.4430618,12.8078499 5.0678754,12.6940384 4.7038984,12.5432749 C4.3399215,12.3925104 3.9941483,12.2076902 3.6665781,11.9888153 C3.3390076,11.7699394 3.0359347,11.5212145 2.757359,11.2426395 C2.4787834,10.9640627 2.2300577,10.6609898 2.0111821,10.3334188 C1.7923065,10.0058479 1.60748661,9.6600752 1.4567225,9.2960987 C1.30595839,8.9321222 1.19214702,8.5569353 1.11528826,8.1705399 C1.03842938,7.7841449 1,7.3939652 1,7 C1,6.6060343 1.03842938,6.2158532 1.11528826,5.8294573 C1.19214702,5.4430618 1.30595839,5.0678754 1.4567225,4.7038984 C1.60748661,4.3399215 1.7923065,3.9941483 2.0111821,3.6665781 C2.2300577,3.3390076 2.4787834,3.0359347 2.757359,2.757359 C3.0359347,2.4787834 3.3390076,2.2300577 3.6665778,2.0111821 C3.994148,1.7923065 4.3399215,1.60748672 4.7038984,1.45672262 C5.0678754,1.30595851 5.4430618,1.19214714 5.8294573,1.11528826 C6.2158532,1.03842938 6.6060343,1 7,1 Z"/>
        <path fill="#1473E6" d="M7,0 C6.54053167,0 6.08500661,0.044865233 5.63436708,0.134502959 C5.18372729,0.22414083 4.74570814,0.357012374 4.32121518,0.532842998 C3.89672159,0.708673923 3.49304083,0.924445802 3.11100723,1.17971271 C2.72897409,1.43497932 2.37514532,1.72535924 2.05025235,2.05025209 C1.72535899,2.37514557 1.43497902,2.72897449 1.17971248,3.11100789 C0.92444553,3.49304154 0.70867363,3.89672203 0.532842915,4.32121509 C0.357012169,4.74570835 0.224140628,5.1837276 0.134502939,5.63436718 C0.044865233,6.08500661 0,6.54053167 0,7 C0,7.45946781 0.044865231,7.91499162 0.134503046,8.36563055 C0.224140763,8.81627016 0.357012453,9.25429002 0.532843064,9.67878236 C0.708673393,10.103274 0.924444952,10.5069537 1.17971216,10.8889886 C1.43497776,11.2710211 1.72535723,11.6248499 2.0502507,11.9497448 C2.37514524,12.2746385 2.72897359,12.5650174 3.11100736,12.8202846 C3.4930429,13.075552 3.89672277,13.2913236 4.32121425,13.4671541 C4.74570883,13.6429847 5.18372703,13.7758561 5.63436538,13.8654944 C6.08500898,13.9551335 6.54053453,14 7,14 C7.45946325,14 7.91498683,13.9551338 8.36562963,13.8654957 C8.81626894,13.7758572 9.25428785,13.6429851 9.67878104,13.4671549 C10.1032733,13.2913239 10.5069523,13.0755525 10.8889873,12.8202861 C11.271022,12.5650187 11.6248502,12.2746402 11.949744,11.9497486 C12.2746402,11.6248502 12.5650187,11.271022 12.820285,10.8889889 C13.0755525,10.5069523 13.2913239,10.1032733 13.467154,9.67878321 C13.6429844,9.25428954 13.7758559,8.81627073 13.8654944,8.36563187 C13.9551335,7.91498926 14,7.45946495 14,7 C14,6.54053624 13.9551338,6.08501141 13.8654958,5.63436801 C13.7758573,5.18372882 13.6429854,4.74571052 13.4671551,4.32121651 C13.2913235,3.8967225 13.0755518,3.49304235 12.8202855,3.11100846 C12.5650171,2.7289732 12.2746382,2.37514499 11.9497472,2.05025311 C11.6248499,1.72535723 11.2710211,1.43497776 10.8889884,1.17971208 C10.5069538,0.924445057 10.1032742,0.708673571 9.67878234,0.532843175 C9.25429002,0.357012573 8.81627016,0.224140883 8.36563007,0.134503069 C7.91499138,0.044865302 7.45946756,0 7,0 Z M7,2 C7.32846234,2 7.65329793,2.0319936 7.97544925,2.09607359 C8.29760213,2.16015373 8.60995597,2.25490511 8.91341504,2.38060206 C9.21687427,2.50629907 9.50474022,2.66016678 9.77784905,2.84265204 C10.0509555,3.02513562 10.3032729,3.232207 10.5355342,3.4644673 C10.7677893,3.69672299 10.9748605,3.94904034 11.1573463,4.22214889 C11.3398299,4.49525562 11.4936982,4.78312269 11.6193957,5.08658255 C11.745093,5.39004413 11.8398451,5.70239887 11.9039253,6.02454922 C11.9680057,6.34670455 12,6.67154211 12,7 C12,7.32845763 11.9680056,7.65329288 11.9039244,7.97544798 C11.8398436,8.29760125 11.7450918,8.60995616 11.6193949,8.91341636 C11.4936987,9.21687281 11.3398304,9.50473961 11.1573445,9.77785028 C10.9748607,10.0509567 10.7677895,10.3032744 10.5355304,10.535535 C10.3032744,10.7677895 10.0509567,10.9748607 9.77784865,11.1573456 C9.50473961,11.3398304 9.21687281,11.4936987 8.91341419,11.6193958 C8.60995379,11.7450928 8.29759874,11.839845 7.97544793,11.9039253 C7.65329307,11.9680057 7.32845705,12 7,12 C6.67154153,12 6.34670474,11.9680056 6.02454879,11.9039244 C5.70239635,11.8398437 5.39004176,11.745092 5.08658029,11.6193947 C4.78312308,11.4936984 4.49525627,11.3398302 4.22214744,11.1573451 C3.94904034,10.9748605 3.69672309,10.7677894 3.46446489,10.5355318 C3.232207,10.3032729 3.02513562,10.0509555 2.84265212,9.77784917 C2.66016662,9.50473999 2.50629885,9.21687401 2.38060194,8.91341504 C2.25490499,8.60995597 2.16015361,8.29760213 2.09607357,7.97544973 C2.03199355,7.65329828 2,7.32846269 2,7 C2,6.67153647 2.03199362,6.34669934 2.09607356,6.02454752 C2.16015352,5.70239547 2.25490482,5.39004196 2.38060212,5.08658162 C2.50629921,4.78312189 2.66016691,4.4952559 2.84265149,4.22214867 C3.0251358,3.94904158 3.23220708,3.69672457 3.46446591,3.46446565 C3.69672448,3.23220717 3.94904157,3.02513577 4.22214837,2.84265149 C4.49525501,2.66016731 4.78312123,2.50629959 5.08658168,2.38060221 C5.39004189,2.25490496 5.7023955,2.16015361 6.02454771,2.09607352 C6.34669934,2.03199362 6.67153647,2 7,2 Z"/>
      </g>
    </g>
  </g>
</svg>
